<?xml version="1.0" encoding="UTF-8"?>
<svg viewBox="0 0 900 550" xmlns="http://www.w3.org/2000/svg">
  <!-- Background and border -->
  <rect x="0" y="0" width="900" height="550" fill="#2e303e" rx="8" />

  <!-- Main branches -->
  <!-- Master/Main branch -->
  <line x1="100" y1="150" x2="800" y2="150" stroke="#2c3e50" stroke-width="8" stroke-linecap="round" />

  <!-- Develop branch -->
  <line x1="100" y1="250" x2="800" y2="250" stroke="#16a085" stroke-width="8" stroke-linecap="round" />

  <!-- Commit circles on master -->
  <circle cx="150" cy="150" r="12" fill="#3498db" stroke="#2c3e50" stroke-width="2" />
  <circle cx="350" cy="150" r="12" fill="#3498db" stroke="#2c3e50" stroke-width="2" />
  <circle cx="550" cy="150" r="12" fill="#3498db" stroke="#2c3e50" stroke-width="2" />
  <circle cx="750" cy="150" r="12" fill="#3498db" stroke="#2c3e50" stroke-width="2" />

  <!-- Commit circles on develop -->
  <circle cx="150" cy="250" r="12" fill="#1abc9c" stroke="#16a085" stroke-width="2" />
  <circle cx="210" cy="250" r="12" fill="#1abc9c" stroke="#16a085" stroke-width="2" />
  <circle cx="270" cy="250" r="12" fill="#1abc9c" stroke="#16a085" stroke-width="2" />
  <circle cx="350" cy="250" r="12" fill="#1abc9c" stroke="#16a085" stroke-width="2" />
  <circle cx="430" cy="250" r="12" fill="#1abc9c" stroke="#16a085" stroke-width="2" />
  <circle cx="490" cy="250" r="12" fill="#1abc9c" stroke="#16a085" stroke-width="2" />
  <circle cx="550" cy="250" r="12" fill="#1abc9c" stroke="#16a085" stroke-width="2" />
  <circle cx="650" cy="250" r="12" fill="#1abc9c" stroke="#16a085" stroke-width="2" />
  <circle cx="750" cy="250" r="12" fill="#1abc9c" stroke="#16a085" stroke-width="2" />

  <!-- Branch Labels -->
  <rect x="40" y="135" width="70" height="30" rx="15" fill="#2c3e50" />
  <text x="75" y="155" font-family="Archivo" font-size="14" fill="white" text-anchor="middle">main</text>

  <rect x="30" y="235" width="80" height="30" rx="15" fill="#16a085" />
  <text x="70" y="255" font-family="Archivo" font-size="14" fill="white" text-anchor="middle">develop</text>

  <!-- Feature branch 1 -->
  <path d="M 210,250 C 210,250 210,200 240,200 C 270,200 270,250 270,250" fill="none" stroke="#9b59b6" stroke-width="3" stroke-linecap="round" />
  <circle cx="240" cy="200" r="8" fill="#9b59b6" stroke="#2c3e50" stroke-width="1" />

  <!-- Feature branch 1 label -->
  <rect x="190" y="175" width="100" height="20" rx="10" fill="#9b59b6" />
  <text x="240" y="190" font-family="Archivo" font-size="12" fill="white" text-anchor="middle">feature/login</text>

  <!-- Feature branch 2 -->
  <path d="M 430,250 C 430,250 430,200 460,200 C 490,200 490,250 490,250" fill="none" stroke="#9b59b6" stroke-width="3" stroke-linecap="round" />
  <circle cx="460" cy="200" r="8" fill="#9b59b6" stroke="#2c3e50" stroke-width="1" />

  <!-- Feature branch 2 label -->
  <rect x="410" y="175" width="100" height="20" rx="10" fill="#9b59b6" />
  <text x="460" y="190" font-family="Archivo" font-size="12" fill="white" text-anchor="middle">feature/search</text>

  <!-- Release branch -->
  <path d="M 550,250 C 550,250 550,200 550,180 C 550,160 550,150 550,150" fill="none" stroke="#f39c12" stroke-width="3" stroke-linecap="round" />
  <circle cx="550" cy="200" r="8" fill="#f39c12" stroke="#2c3e50" stroke-width="1" />
  <circle cx="550" cy="180" r="8" fill="#f39c12" stroke="#2c3e50" stroke-width="1" />

  <!-- Release branch label -->
  <rect x="560" y="180" width="110" height="20" rx="10" fill="#f39c12" />
  <text x="615" y="195" font-family="Archivo" font-size="12" fill="white" text-anchor="middle">release/1.0</text>

  <!-- Hotfix branch -->
  <path d="M 350,150 C 350,150 350,100 350,80 C 350,60 350,60 380,60 C 410,60 410,60 410,80 C 410,100 410,150 410,150" fill="none" stroke="#e74c3c" stroke-width="3" stroke-linecap="round" />
  <circle cx="350" cy="100" r="8" fill="#e74c3c" stroke="#2c3e50" stroke-width="1" />
  <circle cx="350" cy="80" r="8" fill="#e74c3c" stroke="#2c3e50" stroke-width="1" />
  <circle cx="380" cy="60" r="8" fill="#e74c3c" stroke="#2c3e50" stroke-width="1" />
  <circle cx="410" cy="80" r="8" fill="#e74c3c" stroke="#2c3e50" stroke-width="1" />

  <!-- Hotfix branch label -->
  <rect x="330" y="30" width="100" height="20" rx="10" fill="#e74c3c" />
  <text x="380" y="45" font-family="Archivo" font-size="12" fill="white" text-anchor="middle">hotfix/bug-123</text>

  <!-- Hotfix back to develop connection -->
  <path d="M 380,60 C 380,60 380,200 350,250" fill="none" stroke="#e74c3c" stroke-width="2" stroke-dasharray="5,5" />

  <!-- Release back to develop connection -->
  <path d="M 550,180 C 550,180 550,210 600,250" fill="none" stroke="#f39c12" stroke-width="2" stroke-dasharray="5,5" />

  <!-- Version Tags -->
  <polygon points="150,125 160,115 175,115 175,135 160,135" fill="white" stroke="#2c3e50" stroke-width="1" />
  <text x="162" y="129" font-family="Archivo" font-size="10" fill="#16161c" text-anchor="middle">v1.0</text>

  <polygon points="350,125 360,115 385,115 385,135 360,135" fill="white" stroke="#2c3e50" stroke-width="1" />
  <text x="367" y="129" font-family="Archivo" font-size="10" fill="#16161c" text-anchor="middle">v1.1</text>

  <polygon points="550,125 560,115 585,115 585,135 560,135" fill="white" stroke="#2c3e50" stroke-width="1" />
  <text x="567" y="129" font-family="Archivo" font-size="10" fill="#16161c" text-anchor="middle">v2.0</text>

  <polygon points="750,125 760,115 785,115 785,135 760,135" fill="white" stroke="#2c3e50" stroke-width="1" />
  <text x="767" y="129" font-family="Archivo" font-size="10" fill="#16161c" text-anchor="middle">v2.1</text>

  <!-- Deploy arrows -->
  <path d="M 150,170 L 150,310" stroke="#7f8c8d" stroke-width="2" stroke-dasharray="5,5" marker-end="url(#arrow)" />
  <path d="M 350,170 L 350,310" stroke="#7f8c8d" stroke-width="2" stroke-dasharray="5,5" marker-end="url(#arrow)" />
  <path d="M 550,170 L 550,310" stroke="#7f8c8d" stroke-width="2" stroke-dasharray="5,5" marker-end="url(#arrow)" />
  <path d="M 750,170 L 750,310" stroke="#7f8c8d" stroke-width="2" stroke-dasharray="5,5" marker-end="url(#arrow)" />

  <!-- Production area -->
  <rect x="100" y="320" width="700" height="65" rx="8" fill="#16161c" stroke="#232530" stroke-width="1" />
  <text x="120" y="340" font-family="Archivo" font-size="14" fill="#FDF0ED">Production Deployments</text>

  <!-- Production deployments -->
  <rect x="130" y="350" width="40" height="25" rx="5" fill="#232530" />
  <text x="150" y="365" font-family="Archivo" font-size="10" fill="white" text-anchor="middle">v1.0</text>

  <rect x="330" y="350" width="40" height="25" rx="5" fill="#232530" />
  <text x="350" y="365" font-family="Archivo" font-size="10" fill="white" text-anchor="middle">v1.1</text>

  <rect x="530" y="350" width="40" height="25" rx="5" fill="#232530" />
  <text x="550" y="365" font-family="Archivo" font-size="10" fill="white" text-anchor="middle">v2.0</text>

  <rect x="730" y="350" width="40" height="25" rx="5" fill="#232530" />
  <text x="750" y="365" font-family="Archivo" font-size="10" fill="white" text-anchor="middle">v2.1</text>

  <!-- Flow legend -->
  <rect x="100" y="400" width="700" height="120" rx="8" fill="#16161c" stroke="#232530" stroke-width="1" />

  <!-- Legend items -->
  <text x="120" y="425" font-family="Archivo" font-size="14" fill="#FDF0ED">Branch Types</text>

  <line x1="120" y1="445" x2="170" y2="445" stroke="#2c3e50" stroke-width="4" stroke-linecap="round" />
  <text x="175" y="450" font-family="Archivo" fill="white" font-size="12" dx="5">Main/Master - stable production code</text>

  <line x1="120" y1="470" x2="170" y2="470" stroke="#16a085" stroke-width="4" stroke-linecap="round" />
  <text x="175" y="475" font-family="Archivo" fill="white" font-size="12" dx="5">Develop - integration branch</text>

  <line x1="120" y1="495" x2="170" y2="495" stroke="#9b59b6" stroke-width="3" stroke-linecap="round" />
  <text x="175" y="500" font-family="Archivo" fill="white" font-size="12" dx="5">Feature - new functionality branches</text>

  <line x1="400" y1="445" x2="450" y2="445" stroke="#f39c12" stroke-width="3" stroke-linecap="round" />
  <text x="455" y="450" font-family="Archivo" fill="white" font-size="12" dx="5">Release - preparation for production release</text>

  <line x1="400" y1="470" x2="450" y2="470" stroke="#e74c3c" stroke-width="3" stroke-linecap="round" />
  <text x="455" y="475" font-family="Archivo" fill="white" font-size="12" dx="5">Hotfix - critical bug fixes to production</text>

  <line x1="400" y1="495" x2="450" y2="495" stroke="#7f8c8d" stroke-width="2" stroke-dasharray="5,5" />
  <text x="455" y="500" font-family="Archivo" fill="white" font-size="12" dx="5">Merge back connections</text>

  <!-- Arrow marker definition -->
  <defs>
    <marker id="arrow" markerWidth="10" markerHeight="10" refX="9" refY="3" orient="auto" markerUnits="strokeWidth">
      <path d="M0,0 L0,6 L9,3 z" fill="#7f8c8d" />
    </marker>
  </defs>
</svg>
